<svg width="668" height="185" viewBox="0 0 668 185" fill="none" xmlns="http://www.w3.org/2000/svg">
<g filter="url(#filter0_f_1699_5158)">
<path d="M234 137L234.584 47.0001H258.847V83.0682H291.603V70.8516M234 137H259L258.847 104.593H291.603V137H316.473M234 137L201.221 47.0001H174.531L141.5 137M234 137H211L203.041 114.482H171.498L163 137H141.5M316.473 137H338.31M316.473 137V70.8516H291.603M338.31 137V70.8516H364.379V47.0001H316.473L291.603 47V70.8516M338.31 137L374.099 47.0001H400.789L436.316 137M338.31 137H363L371.066 115.064H402.609L410 137H436.316M141.5 137L114.479 92.376L144.659 47H119.182L96.8876 78.9959L77.4767 47H53.2132L81.7229 92.376L51 137H77.5L96.8876 106.338L115.5 137H141.5ZM436.316 137L436.5 72.0154H410.816V47.0001H486.434V72.0154H459.5V137H436.316ZM187.27 61.5437L175.138 94.1213H198.795L187.27 61.5437ZM386.837 62.1255L374.706 94.7031H398.362L386.837 62.1255ZM486.277 75.0001V113C487.491 123.28 495.81 137 522.5 137H533.419C551.616 137 570.594 130.537 571.2 113V75.0001C571.2 65.9676 565.741 47.0002 533.592 47.0001L522.673 47.0001C501.5 47.5001 486.277 57.7071 486.277 75.0001ZM508.008 79.0718V108.512C508.008 121.417 512.254 123.231 526.322 123.231H531.618C546.223 123.836 549.568 120.049 549.862 108.512V79.0718C549.862 68.8077 547.436 62.156 531.618 62.7606L526.322 62.7606C510.791 62.7606 508.008 66.3889 508.008 79.0718ZM579.585 47.0001V137H603.849V104.011H636.605V137H661.475V47.0001H636.605V82.4864H603.849V47.0001H579.585Z" stroke="url(#paint0_linear_1699_5158)" stroke-width="2"/>
</g>
<path d="M234 137L234.584 47.0001H258.847V83.0682H291.603V70.8516M234 137H259L258.847 104.593H291.603V137H316.473M234 137L201.221 47.0001H174.531L141.5 137M234 137H211L203.041 114.482H171.498L163 137H141.5M316.473 137H338.31M316.473 137V70.8516H291.603M338.31 137V70.8516H364.379V47.0001H316.473L291.603 47V70.8516M338.31 137L374.099 47.0001H400.789L436.316 137M338.31 137H363L371.066 115.064H402.609L410 137H436.316M141.5 137L114.479 92.376L144.659 47H119.182L96.8876 78.9959L77.4767 47H53.2132L81.7229 92.376L51 137H77.5L96.8876 106.338L115.5 137H141.5ZM436.316 137L436.5 72.0154H410.816V47.0001H486.434V72.0154H459.5V137H436.316ZM187.27 61.5437L175.138 94.1213H198.795L187.27 61.5437ZM386.837 62.1255L374.706 94.7031H398.362L386.837 62.1255ZM486.277 75.0001V113C487.491 123.28 495.81 137 522.5 137H533.419C551.616 137 570.594 130.537 571.2 113V75.0001C571.2 65.9676 565.741 47.0002 533.592 47.0001L522.673 47.0001C501.5 47.5001 486.277 57.7071 486.277 75.0001ZM508.008 79.0718V108.512C508.008 121.417 512.254 123.231 526.322 123.231H531.618C546.223 123.836 549.568 120.049 549.862 108.512V79.0718C549.862 68.8077 547.436 62.156 531.618 62.7606L526.322 62.7606C510.791 62.7606 508.008 66.3889 508.008 79.0718ZM579.585 47.0001V137H603.849V104.011H636.605V137H661.475V47.0001H636.605V82.4864H603.849V47.0001H579.585Z" stroke="#0CA7B7" stroke-width="2"/>
<circle cx="92.5" cy="92.5" r="91.5" stroke="url(#paint1_linear_1699_5158)" stroke-width="2"/>
<path d="M63.5268 54.5554C25.6379 60.2367 7.1377 79.5342 22.2956 97.6254M63.5268 54.5554C63.5385 54.326 63.7415 54.1112 63.9828 54.0729C65.6951 17.8964 79.3849 3.17391 94.5398 21.2651C56.3185 26.9346 23.9726 61.1194 22.2956 97.6254M63.5268 54.5554C25.6379 60.2338 7.14064 79.5342 22.2956 97.6254M63.5268 54.5554C63.515 54.7849 63.7033 54.9441 63.9416 54.9059C62.3235 91.1942 73.3035 135.37 88.4614 153.462C50.2401 159.128 20.6156 134.131 22.2956 97.6254M63.5944 54.3377C31.7252 40.9628 18.1207 44.7728 33.2757 62.864C48.4306 80.9553 86.7079 106.599 118.671 120.083M63.7591 54.1642C46.0975 25.7725 44.038 17.3786 59.1959 35.4698M94.537 21.268C79.382 3.17676 65.6922 17.8992 63.9799 54.0758C64.2212 54.0405 64.4065 54.1964 64.3948 54.4259C102.378 48.8564 145.548 59.0127 160.703 77.1039M94.537 21.268C132.758 15.6014 162.383 40.5978 160.703 77.1039M94.537 21.268C109.692 39.3592 120.675 83.5357 119.057 119.824C119.298 119.789 119.483 119.945 119.471 120.174C157.36 114.493 175.861 95.1951 160.703 77.1039M64.1976 54.0998C84.8309 20.0298 113.896 7.01969 129.051 25.1138M64.3476 54.2262C97.991 31.1363 137.636 27.0526 152.791 45.1438M160.706 77.1041C145.551 59.01 102.381 48.8567 64.3976 54.4261C64.3859 54.6556 64.1829 54.8704 63.9416 54.9086C62.3234 91.197 73.3064 135.373 88.4614 153.464M160.706 77.1041C159.029 113.61 126.683 147.795 88.4614 153.464M160.706 77.1041C175.861 95.1954 157.363 114.496 119.475 120.174C119.463 120.404 119.26 120.619 119.021 120.654C117.306 156.833 103.616 171.556 88.4614 153.464M160.706 77.1041C159.026 113.607 126.683 147.795 88.4614 153.464M88.4614 153.464C103.616 171.556 117.306 156.833 119.019 120.656C118.777 120.692 118.592 120.536 118.604 120.307M88.4614 153.464C50.2401 159.131 20.6157 134.132 22.2956 97.6285M75.007 127.935C108.038 123.037 135.989 93.492 137.439 61.9464C138.89 30.3978 113.29 8.79634 80.2617 13.6921C47.2303 18.5907 19.2799 48.1357 17.8295 79.6813C16.379 111.23 41.9785 132.831 75.0099 127.936M64.327 54.6465C96.2905 68.1332 134.568 93.774 149.723 111.865M64.1652 54.8173C81.921 83.3207 108.65 121.165 123.805 139.26M63.7268 54.8822C43.1877 89.064 38.7921 131.525 53.9471 149.616M63.5768 54.7557C30.0246 77.9574 15.055 111.495 30.21 129.586C45.3649 147.677 85.0103 143.594 118.654 120.504M22.2956 97.6285C37.4506 115.72 80.6206 125.876 118.604 120.307M22.2956 97.6285C23.9726 61.1224 56.3185 26.9348 94.5369 21.2712C109.695 39.3624 120.675 83.5386 119.057 119.827C118.818 119.862 118.615 120.077 118.604 120.307M22.2956 97.6285C37.4506 115.723 80.6206 125.876 118.604 120.307M45.5591 112.786C47.0096 81.2408 74.9599 51.6958 107.991 46.7971M116.788 82.1647C97.3879 85.0421 80.9737 102.395 80.1204 120.922C79.2672 139.448 94.3045 152.138 113.702 149.26M59.193 35.4697C74.3509 53.5638 101.08 91.4115 118.836 119.912M102.74 161.037C69.7082 165.936 44.1086 144.332 45.5591 112.783M53.9472 149.619C69.1022 167.71 98.1705 154.7 118.801 120.63" stroke="url(#paint2_linear_1699_5158)" stroke-width="0.4661" stroke-miterlimit="10"/>
<path d="M33.2756 64.0323C33.7777 64.0323 34.1847 63.6253 34.1847 63.1232C34.1847 62.6211 33.7777 62.2141 33.2756 62.2141C32.7735 62.2141 32.3665 62.6211 32.3665 63.1232C32.3665 63.6253 32.7735 64.0323 33.2756 64.0323Z" fill="#0CA7B7"/>
<path d="M54.8621 39.6743C55.3642 39.6743 55.7713 39.2673 55.7713 38.7652C55.7713 38.2631 55.3642 37.8561 54.8621 37.8561C54.36 37.8561 53.953 38.2631 53.953 38.7652C53.953 39.2673 54.36 39.6743 54.8621 39.6743Z" fill="#0CA7B7"/>
<path d="M67.7487 31.201C68.2508 31.201 68.6578 30.794 68.6578 30.2919C68.6578 29.7898 68.2508 29.3828 67.7487 29.3828C67.2466 29.3828 66.8395 29.7898 66.8395 30.2919C66.8395 30.794 67.2466 31.201 67.7487 31.201Z" fill="#0CA7B7"/>
<path d="M88.4614 53.8116C88.9635 53.8116 89.3705 53.4046 89.3705 52.9025C89.3705 52.4004 88.9635 51.9934 88.4614 51.9934C87.9593 51.9934 87.5523 52.4004 87.5523 52.9025C87.5523 53.4046 87.9593 53.8116 88.4614 53.8116Z" fill="#0CA7B7"/>
<path d="M94.8929 22.1776C95.395 22.1776 95.8021 21.7706 95.8021 21.2685C95.8021 20.7664 95.395 20.3594 94.8929 20.3594C94.3908 20.3594 93.9838 20.7664 93.9838 21.2685C93.9838 21.7706 94.3908 22.1776 94.8929 22.1776Z" fill="#0CA7B7"/>
<path d="M85.7134 104.155C86.2155 104.155 86.6225 103.747 86.6225 103.245C86.6225 102.743 86.2155 102.336 85.7134 102.336C85.2113 102.336 84.8043 102.743 84.8043 103.245C84.8043 103.747 85.2113 104.155 85.7134 104.155Z" fill="#0CA7B7"/>
<path d="M45.5591 125.506C46.0612 125.506 46.4682 125.099 46.4682 124.596C46.4682 124.094 46.0612 123.687 45.5591 123.687C45.057 123.687 44.65 124.094 44.65 124.596C44.65 125.099 45.057 125.506 45.5591 125.506Z" fill="#0CA7B7"/>
<path d="M79.3908 139.26C79.8929 139.26 80.2999 138.853 80.2999 138.351C80.2999 137.849 79.8929 137.442 79.3908 137.442C78.8887 137.442 78.4817 137.849 78.4817 138.351C78.4817 138.853 78.8887 139.26 79.3908 139.26Z" fill="#0CA7B7"/>
<defs>
<filter id="filter0_f_1699_5158" x="44.0974" y="41" width="623.378" height="102" filterUnits="userSpaceOnUse" color-interpolation-filters="sRGB">
<feFlood flood-opacity="0" result="BackgroundImageFix"/>
<feBlend mode="normal" in="SourceGraphic" in2="BackgroundImageFix" result="shape"/>
<feGaussianBlur stdDeviation="2.5" result="effect1_foregroundBlur_1699_5158"/>
</filter>
<linearGradient id="paint0_linear_1699_5158" x1="76.5" y1="41.4999" x2="666" y2="224" gradientUnits="userSpaceOnUse">
<stop stop-color="#38C9D8"/>
<stop offset="0.69064" stop-color="#FF286E"/>
</linearGradient>
<linearGradient id="paint1_linear_1699_5158" x1="34.9389" y1="11.3111" x2="92.5" y2="85.6267" gradientUnits="userSpaceOnUse">
<stop stop-color="#FF2169"/>
<stop offset="1" stop-color="#FF2169" stop-opacity="0"/>
</linearGradient>
<linearGradient id="paint2_linear_1699_5158" x1="17" y1="25.5002" x2="129.5" y2="100" gradientUnits="userSpaceOnUse">
<stop stop-color="#FF2169"/>
<stop offset="0.805837" stop-color="white" stop-opacity="0"/>
</linearGradient>
</defs>
</svg>
