<svg width="599" height="1001" viewBox="0 0 599 1001" fill="none" xmlns="http://www.w3.org/2000/svg">
<path d="M379.062 86.2671C348.953 66.1904 315.753 47.3301 292.534 37.1697C275.901 29.8469 251.729 21.838 247.458 22.1538C246.626 22.2139 242.92 21.2734 239.28 19.9871C228.189 16.0961 217.285 13.637 191.564 9.20879C143.675 0.977865 111.224 -0.940902 66.4803 1.65966C47.9229 2.79203 10.9128 8.01394 -7.7598 12.1342C-108.455 34.488 -196.992 84.8632 -266.544 159.335C-340.278 238.259 -387.106 340.175 -398.098 445.499C-398.529 449.933 -399.467 456.064 -400.132 459.128C-401.415 465.195 -402.038 476.328 -401.528 485.845C-401.304 489.291 -401.137 497.454 -401.062 504.06C-400.785 544.057 -395.258 586.966 -385.344 625.281C-364.875 704.683 -326.039 776.754 -271.137 837.163C-233.43 878.608 -188.649 913.739 -139.84 940.233C-97.7304 963.008 -68.0453 975.519 -42.0134 981.473C-36.9295 982.67 -27.919 984.777 -22.022 986.197C30.7208 999.021 86.4685 1003.52 139.611 999.186C156.461 997.843 193.863 992.623 206.337 989.928C231.237 984.602 257.462 976.12 290.508 962.816C301.624 958.292 336.331 941.393 347.217 935.107C393.576 908.338 431.603 877.797 469.269 837.158C482.768 822.546 510.322 786.402 521.172 769.075C555.563 714.034 577.141 659.94 589.275 598.249C608.247 502.184 599.236 405.82 562.579 313.482C556.632 298.332 543.033 270.007 534.895 255.667C531.424 249.647 527.589 242.556 526.379 240.146C521.316 229.638 510.987 213.529 500.658 200C484.385 178.664 466.252 159.383 434.546 130.053C423.719 120.013 391.573 94.6139 379.062 86.2671ZM437.592 136.245C442.804 141.012 447.099 145.179 447.142 145.509C447.137 145.903 446.482 145.601 445.611 144.938C443.311 143.184 430.953 139.022 424.472 137.852C414.783 136.12 402.759 135.387 391.285 135.867C386.607 136.072 386.076 135.865 384.469 133.847C383.575 132.57 381.682 130.928 380.295 130.168C377.88 128.823 377.837 128.492 377.498 119.007C377.079 107.179 375.196 98.3016 371.385 90.5348C368.875 85.4461 367.947 84.342 364.093 81.4035C356.771 75.9211 348.573 75.3271 336.946 79.3612C332.612 80.9193 331.718 80.9319 330.542 79.6383C324.971 73.4068 314.617 64.4225 300.83 54.011C286.655 43.205 281.332 39.7425 271.418 34.5658C266.32 31.9691 270.572 33.2261 281.5 37.5883C313.816 50.5163 345.365 67.0276 372.113 84.9381C385.805 94.1854 426.143 125.731 437.592 136.245ZM369.611 91.96C372.69 97.9785 374.234 105.108 375.04 116.042C375.837 127.762 375.77 128.108 373.087 126.856C371.543 126.175 367.875 122.089 361.4 114.077C351.913 102.28 338.451 87.0572 335.654 84.9245C334.845 84.3083 334.401 83.4733 334.688 83.0967C335.645 81.8418 342.948 79.8691 348.429 79.3844C358.009 78.5518 364.925 82.6332 369.611 91.96ZM458.858 158.509C462.396 162.893 466.336 170.362 467.732 175.494C468.903 179.76 470.409 188.746 470.026 189.248C469.882 189.436 466.415 186.892 462.345 183.591C454.082 176.894 435.038 163.964 421.007 155.549C410.543 149.16 392.313 139.032 391.045 138.76C390.639 138.649 392.117 138.387 394.393 138.237C401.697 137.554 416.241 138.72 425.505 140.623C440.575 143.678 451.594 149.598 458.858 158.509ZM474.787 174.621C494.388 197.006 520.607 233.662 527.779 248.754C529.615 252.535 530.041 254.943 528.458 252.248C526.411 249.001 518.861 239.177 513.696 233.057C503.429 220.864 493.774 211.222 477.156 196.271C472.642 192.135 472.642 192.135 472.174 186.817C471.529 180.571 468.995 171 467.154 167.612C465.648 165.075 465.696 163.722 467.131 165.709C467.547 166.324 471.043 170.378 474.787 174.621ZM318.61 71.435C331.78 83.5587 331.235 81.9526 323.701 86.0321C320.243 87.8605 316.594 89.9399 315.551 90.5341C313.877 91.4406 313.078 91.3277 309.62 89.2871C273.752 67.9956 219.505 43.6063 182.856 32.2365C177.604 30.6144 173.372 29.0744 173.563 28.8234C173.755 28.5724 179.776 27.5077 186.974 26.4468C207.077 23.4166 240.418 23.1365 248.103 25.8206C255.507 28.488 269.352 35.471 281.748 42.9367C290.189 47.9825 308.868 62.4213 318.61 71.435ZM342.984 96.069C347.101 100.597 353.892 108.452 358.095 113.641C367.09 124.666 366.664 124.837 352.47 115.604C347.148 112.141 336.904 105.721 329.773 101.277C322.595 96.8963 316.727 93.1175 316.651 92.9599C316.593 92.5193 324.906 87.546 329.01 85.5153C331.756 84.2349 332.21 84.2837 333.774 85.9719C334.749 87.0132 338.867 91.5411 342.984 96.069ZM467.821 191.238C470.145 193.605 470.341 194.25 470.091 199.22C469.679 207.239 468.042 216.608 467.109 215.897C466.736 215.612 463.437 212.204 459.86 208.386C444.978 192.576 422.215 170.857 402.766 153.946C397.132 148.957 391.767 143.875 390.92 142.535C389.395 140.281 389.801 140.392 399.883 145.994C413.283 153.431 427.75 162.178 437.864 168.897C448.041 175.663 464.535 187.939 467.821 191.238ZM483.525 205.195C501.023 221.312 515.255 237.717 527.692 255.831C533.689 264.47 534.238 265.683 535.51 272.01C537.995 284.224 540.22 308.641 538.852 308.888C538.632 308.919 536.275 305.435 533.597 301.211C520.409 280.342 498.982 252.101 479.767 230.111C474.631 224.211 470.256 218.99 470.089 218.565C469.921 218.14 470.319 215.168 470.922 212.056C471.51 208.834 472.166 203.976 472.358 201.146C472.502 198.378 472.751 195.989 472.847 195.863C473.134 195.487 473.009 195.392 483.525 205.195ZM234.09 22.2815C233.526 22.2481 228.49 22.2782 222.827 22.2275C204.504 22.1496 187.071 23.7419 174.687 26.704C168.709 28.0992 167.704 28.1272 161.123 26.1861C157.23 25.1034 149.927 23.207 144.843 22.0101C139.774 20.9234 134.346 19.6625 132.782 19.264L129.95 18.5938L135.269 17.2907C151.191 13.5543 172.38 11.5501 188.167 12.3743C195.772 12.7147 208.245 15.1791 222.583 19.0654C227.4 20.3557 232.077 21.4411 232.938 21.6013C234.865 21.7808 235.41 22.0972 234.09 22.2815ZM368.974 129.673C368.83 129.862 364.43 129.186 359.093 128.193C341.703 124.957 313.758 121.512 293.397 119.98C288.414 119.554 284.2 119.021 284.157 118.691C284.086 118.14 303.683 101.33 304.563 101.208C305.271 101.053 330.891 111.158 344.751 116.962C357.97 122.574 369.691 128.732 368.974 129.673ZM400.632 160.356C418.626 185.881 434.444 211.036 449.013 236.927L457.778 252.637L454.979 259.532C453.409 263.396 451.926 266.631 451.658 266.724C451.391 266.818 449.76 265.475 447.962 263.708C442.677 258.389 421.784 238.989 413.061 231.347L404.975 224.289L401.681 211.46C396.471 191.216 393.55 181.25 386.785 161.111C383.367 150.766 380.154 141.57 379.82 140.72C379.423 139.822 379.542 139.02 380.236 138.755C380.977 138.427 382.642 139.597 386.63 143.134C390.633 146.78 394.018 150.85 400.632 160.356ZM374.913 135.293C375.42 136.175 373.655 136.814 366.859 138.38C354.997 141.044 342.604 144.793 327.303 150.293C312.27 155.7 316.665 156.768 293.834 141.844C285.695 136.531 277.694 131.424 276.058 130.475L273.098 128.813L274.796 127.231C275.748 126.369 277.604 124.708 278.843 123.47C281.431 120.978 280.034 121.004 305.607 123.435C323.849 125.038 340.091 127.201 357.328 130.121C371.872 132.577 373.56 133.071 374.913 135.293ZM344.129 113.908C328.562 107.895 308.05 99.5993 308.007 99.2689C307.931 99.1114 309.294 97.9679 310.877 96.7937C314.407 94.2263 313.455 93.7983 330.954 104.757C337.401 108.68 343.254 112.348 344.034 112.744C347.525 114.612 347.597 115.163 344.129 113.908ZM423.969 176.163C435.882 187.229 452.093 203.358 461.461 213.377L467.176 219.42L465.788 226.399C464.562 232.906 459.505 248.695 458.735 248.803C458.515 248.833 455.885 244.546 452.954 239.236C440.077 216.025 421.586 186.252 407.279 165.82C403.549 160.397 400.312 155.747 400.082 155.274C399.284 153.872 412.741 165.619 423.969 176.163ZM374.328 145.86C372.548 151.547 359.797 186.971 359.453 186.907C359.123 186.953 317.258 157.022 317.168 156.754C317.153 156.644 322.592 154.539 329.273 152.093C343.139 147.185 356.116 143.187 367.317 140.614C376.175 138.537 376.486 138.774 374.328 145.86ZM395.294 196.371C398.042 206.304 400.59 215.986 400.958 217.953L401.651 221.557L394.119 215.319C389.973 211.86 380.949 204.485 374.005 198.893L361.361 188.659L364.782 179.658C367.638 171.914 376.772 146.136 377.705 142.977C378.275 141.328 389.705 176.236 395.294 196.371ZM537.524 266.402C537.194 266.448 536.84 265.881 536.74 265.11C536.659 264.056 536.769 264.04 537.352 265.08C537.83 265.743 537.854 266.356 537.524 266.402ZM310.916 93.6481C310.677 93.9619 309.141 95.0735 307.448 96.263L304.411 98.313L287.413 92.4989C238.689 75.6934 187.414 63.3933 143.117 57.8011C137.416 57.0268 132.705 56.1144 132.647 55.6738C132.59 55.2332 134.317 52.581 136.532 49.8047C142.492 42.2441 151.729 36.1887 163.94 31.9049C168.603 30.3008 168.713 30.2854 178.699 33.4334C215.08 44.8967 250.523 59.9113 286.167 79.0473C310.792 92.2637 311.586 92.7696 310.916 93.6481ZM545.006 285.6C554.048 304.3 559.685 320.503 563.637 339.689C565.755 349.935 567.656 363.687 566.781 362.127C566.566 361.765 563.152 354.896 559.25 346.862C555.301 338.89 549.707 328.176 546.79 322.976L541.43 313.631L541.498 306.837C541.56 303.015 540.825 293.922 539.975 286.527C539.139 279.242 538.599 273.373 538.91 273.61C539.159 273.8 541.932 279.188 545.006 285.6ZM479.322 233.145C496.078 252.169 517.229 280.001 530.512 300.744C539.009 313.969 539.01 313.969 538.081 320.603C536.903 329.627 533.74 338.03 528.851 345.217C524.938 350.866 524.589 351.195 523.771 350.075C516.661 340.19 502.755 322.842 491.928 310.223L484.349 301.468L472.414 276.892L460.418 252.268L463.069 244.665C465.265 238.303 466.332 234.453 469.347 222.762C469.495 222.18 469.825 222.134 470.227 222.639C470.581 223.206 474.664 227.907 479.322 233.145ZM299.278 102.338C297.9 103.371 293.017 107.585 288.386 111.596C283.818 115.654 279.886 119.006 279.666 119.037C276.935 119.138 255.456 118.043 255.083 117.758C254.772 117.521 248.775 114.041 241.702 110.038C213.83 94.2468 177.593 76.1467 151.983 65.2548C144.929 62.2582 139.17 59.7538 139.266 59.6282C139.362 59.5027 155.178 61.8369 169.818 64.1671C188.341 67.0767 223.757 75.4226 249.769 82.9502C263.916 87.0875 301.713 99.5306 301.737 100.144C301.751 100.254 300.703 101.242 299.278 102.338ZM174.929 9.62419C154.535 10.8447 143.534 12.3802 130.281 15.9684C125.574 17.2422 123.441 17.2035 115.598 15.8872C97.8299 12.7599 74.9828 10.622 55.8612 10.4313C36.3952 10.1765 24.0077 10.9523 3.15433 13.8069C-8.06633 15.3731 -16.1112 16.3839 -14.8054 16.0895C35.8221 4.48102 91.0161 0.421804 140.804 4.74289C149.533 5.54318 177.182 8.86122 177.679 9.24038C177.866 9.38256 176.656 9.55139 174.929 9.62419ZM565.327 327.285C578.293 362.371 586.682 395.853 591.857 433.036C592.965 441.123 593.457 445.765 592.86 443.325C592.262 440.885 590.728 434.258 589.323 428.623C585.924 414.126 581.292 399.184 575.545 384.286C571.122 372.68 570.468 369.799 568.423 354.945C566.34 339.368 562.855 322.92 560.12 315.676C558.83 312.211 558.816 310.812 560.207 313.757C560.618 314.765 562.975 320.829 565.327 327.285ZM158.75 31.6199C147.209 36.3148 139.833 41.6059 133.533 49.999L128.893 56.0857L125.77 54.8955C115.325 50.8023 87.1602 40.9396 80.5794 38.9985C79.4698 38.6487 99.4633 29.1854 107.944 25.927C124.603 19.6766 124.053 19.7534 136.335 22.4688C147.225 24.8178 162.63 28.7234 163.596 29.2614C163.892 29.3883 161.682 30.4817 158.75 31.6199ZM471.739 280.743C475.397 288.195 478.209 294.307 477.989 294.337C477.831 294.416 476.406 292.932 474.78 291.197C473.202 289.398 467.827 283.813 462.901 278.668C457.928 273.587 453.887 269.217 453.844 268.886C453.772 268.336 458.155 257.687 458.92 256.683C459.494 255.93 462.148 260.83 471.739 280.743ZM546.794 327.741C549.711 332.941 555.668 344.726 559.996 353.879C566.771 368.073 567.956 371.159 568.338 375.816C568.921 383.304 568.637 397.474 567.679 407.757C566.376 421.845 566.773 421.453 562.297 412.882C554.929 398.435 544.83 381.508 535.295 367.195L525.746 352.772L529.138 348.71C533.945 343.048 537.38 335.447 539.347 326.033C540.281 321.585 541.219 318.034 541.281 318.081C541.405 318.176 543.877 322.541 546.794 327.741ZM274.801 124.258C273.309 125.7 271.553 126.842 270.941 126.872C269.798 126.695 261.061 121.522 260.975 120.861C260.898 120.704 264.648 120.685 269.273 120.936C273.883 121.078 277.614 121.342 277.614 121.342C277.628 121.452 276.342 122.753 274.801 124.258ZM356.563 194.824C343.066 229.678 315.508 292.905 313.638 293.167C310.997 293.535 256.255 252 238.938 236.418C228.867 227.451 212.412 212.029 212.306 211.651C212.101 210.502 245.177 190.97 264.52 180.812C284.542 170.28 312.308 157.713 314.341 158.27C315.795 158.684 335.952 172.86 348.668 182.356L358.524 189.672L356.563 194.824ZM394.439 218.638L402.995 225.855L405.815 238.919C407.421 246.096 409.762 258.498 411.124 266.382C413.829 282.434 419.022 321.913 419.027 326.679C419.012 329.148 418.155 331.174 415.098 336.086C412.984 339.634 410.774 343.307 410.243 344.39C409.248 346.211 409.138 346.226 399.869 342.137C376.105 331.66 346.793 315.566 322.064 299.392L315.871 295.266L320.899 284.415C333.419 257.547 357.351 200.882 360.05 191.926C360.409 190.81 369.313 197.698 394.439 218.638ZM311.103 156.199C293.143 163.64 268.916 175.433 251.572 185.031C240.136 191.393 217.726 204.67 213.058 207.957C210.336 209.851 209.633 209.613 206.616 206.221L205.038 204.423L209.927 198.526C219.876 186.763 239.8 163.852 245.301 157.926C256.59 145.696 270.716 131.165 271.486 131.057C272.194 130.902 286.737 139.806 302.394 149.957C306.502 152.692 310.347 155.127 310.83 155.396C311.266 155.728 311.419 156.043 311.103 156.199ZM420.779 241.596C432.309 251.874 446.531 265.197 449.176 268.304C450.491 269.803 450.343 270.384 445.511 280.591C437.798 296.639 425.465 319.78 422.274 324.095C421.652 324.91 420.41 317.514 418.399 301.197C415.255 276.179 412.866 261.261 408.703 241.319C407.369 234.945 406.323 229.484 406.39 229.138C406.519 228.84 407.174 229.141 407.825 229.835C408.537 230.577 414.324 235.881 420.779 241.596ZM261.015 137.958C248.435 150.592 230.97 170.019 212.711 191.52C207.569 197.621 203.287 202.592 203.067 202.623C202.895 202.591 198.869 198.331 194.053 193.171C176.106 174.033 160.876 154.683 149.672 137.014L143.838 127.903L162.348 125.544C189.06 122.096 217.054 120.319 243.613 120.425L255.159 120.495L262.026 124.639C270.233 129.606 270.324 128.584 261.015 137.958ZM464.656 283.975C480.719 300.685 481.709 301.837 484.348 307.917C493.212 328.267 505.394 360.771 504.581 361.838C503.576 363.155 484.947 365.027 477.438 364.561C463.879 363.65 445.074 359.434 428.531 353.669L423.002 351.637L422.334 340.908L421.604 330.132L427.632 319.646C434.975 306.79 443.137 291.184 448.371 280.192C450.466 275.638 452.318 271.791 452.461 271.603C452.557 271.477 453.255 272.109 454.154 272.992C454.943 273.892 459.668 278.783 464.656 283.975ZM241.509 118.027C215.137 118.063 189.544 119.785 162.281 123.31L142.892 125.792L138.789 117.505C129.8 99.6395 125.79 81.3028 127.997 68.9953C129.021 63.5255 130.619 58.5923 131.179 59.0189C131.303 59.1137 138.591 62.1896 147.315 65.9624C174.752 77.5526 202.323 91.0307 230.917 106.777C252.576 118.725 251.926 118.031 241.509 118.027ZM116.802 19.9805C106.15 23.7662 96.5938 27.7916 87.3289 32.337L76.4376 37.7262L65.6338 34.7484C31.9068 25.6062 -0.730345 20.9658 -23.5875 22.1936C-26.5385 22.3251 -28.796 22.1917 -28.6525 22.0035C-27.9349 21.0623 -4.57036 16.8477 8.48692 15.1934C35.778 11.8888 63.2026 11.7616 90.8706 14.7966C103.717 16.2557 117.922 18.2542 118.668 18.8229C118.964 18.9498 118.141 19.5132 116.802 19.9805ZM497.652 320.638C504.935 329.266 513.724 340.432 519.309 348.063C522.441 352.336 522.47 352.556 520.853 353.903C518.681 355.72 508.211 361.331 507.652 360.905C507.465 360.762 505.428 355.439 503.09 349.093C498.993 337.834 493.763 324.321 489.187 313.689C486.581 307.437 486.271 307.2 497.652 320.638ZM573.311 384.766C590.131 430.529 597.657 472.878 596.403 514.883C596.062 527.323 595.545 532.386 595.335 526.471C594.172 498.597 585.047 462.471 571.674 432.432C568.284 424.887 568.183 424.116 568.911 418.519C570.046 409.165 571.22 391.507 571.063 385.136C570.93 381.959 570.992 379.427 571.179 379.569C571.303 379.664 572.341 382.042 573.311 384.766ZM541.573 381.01C548.526 392.263 556.248 405.988 562.483 418.183L565.715 424.517L564.447 431.983C561.958 446.853 557.077 464.861 550.608 483.146C546.464 494.771 538.948 512.754 538.436 512.265C538.25 512.122 537.858 508.252 537.538 503.643C535.982 479.637 528.422 436.17 520.592 405.695C517.37 393.416 509.918 367.99 508.531 364.651C508.134 363.753 508.943 363.079 512.492 361.519C514.922 360.394 518.475 358.44 520.374 357.11L523.919 354.653L529.207 362.157C532.153 366.288 537.681 374.768 541.573 381.01ZM125.821 67.3365C122.887 81.3716 127.04 100.81 137.091 120.378C138.946 123.876 140.055 126.805 139.553 126.819C138.142 126.736 116.394 130.893 105.068 133.371C59.6399 143.188 8.81541 160.599 -33.7926 180.901L-43.5454 185.571L-50.2314 183.252C-53.8709 181.966 -59.0123 180.328 -61.5614 179.675C-64.1727 178.974 -66.5162 178.179 -66.8892 177.895C-67.6974 177.279 -46.3621 149.293 -34.695 135.665C-6.95498 103.532 21.9944 76.3895 47.9915 58.4063C52.77 55.1039 53.0378 55.0105 61.2116 54.991C81.6676 55.1076 96.4703 55.6769 114.946 57.3595C127.467 58.4715 127.812 58.5356 127.319 60.3426C127.055 61.3326 126.405 64.5074 125.821 67.3365ZM116.448 55.1312C109.556 54.2428 82.1031 52.86 70.2753 52.7727C63.7803 52.7821 58.0553 52.684 57.3809 52.666C55.97 52.5826 75.0933 41.166 76.9777 41.0152C78.7521 40.8796 86.9112 43.3294 99.2358 47.665C104.578 49.5547 111.03 51.7942 113.607 52.6681C119.997 54.8602 120.944 55.6813 116.448 55.1312ZM509.151 374.152C517.049 399.124 523.928 426.592 528.597 452.575C531.168 466.739 535.286 499.247 535.93 510.652C536.35 517.322 536.235 517.73 532.824 524.655C527.758 534.782 519.433 549.57 511.751 561.969C504.723 573.379 476.729 612.164 475.983 611.595C475.734 611.405 474.242 608.978 472.769 606.268C463.01 588.51 439.995 555.387 418.276 527.915L412.035 519.983L413.519 511.589C421.455 467.137 425.122 413.974 423.517 365.919C423.293 359.895 423.308 354.846 423.528 354.815C423.748 354.785 428.53 356.248 434.126 357.934C454.146 364.167 468.327 366.842 482.46 367C489.299 367.055 503.863 365.358 504.628 364.354C505.442 363.288 506.297 365.131 509.151 374.152ZM72.2667 40.1028C71.7454 40.3998 68.5836 42.3551 65.1541 44.4038C61.7245 46.4525 57.3623 49.08 55.4968 50.2375C52.603 52.0993 50.5272 52.5012 41.392 52.8791C-8.86591 54.8476 -63.8552 65.2146 -106.31 80.6726C-109.997 82.0284 -113.288 82.9924 -113.474 82.8502C-114.531 82.0445 -106.346 67.0521 -100.94 59.9614C-88.0243 43.019 -81.1125 38.4656 -53.921 29.2312C-29.3602 20.8686 16.2099 23.7599 64.213 36.7411C72.9221 39.1141 73.5151 39.3678 72.2667 40.1028ZM579.49 458.929C590.108 489.745 594.7 520.729 592.892 549.017C592.26 558.357 591.824 560.605 589.753 564.483C578.879 585.065 562.634 599.668 541.259 607.979C538.547 609.086 536.246 609.912 536.122 609.817C536.059 609.77 536.419 604.785 537.042 598.811C539.12 577.774 539.918 551.196 539.199 529.316C539.066 524.849 538.884 520.445 538.88 519.548C538.875 518.652 541.483 512.008 544.617 504.673C554.176 482.592 561.31 459.952 565.345 439.315C566.465 433.72 567.417 428.989 567.513 428.864C567.944 428.299 575.66 447.576 579.49 458.929ZM420.468 347.224L420.563 350.968L417.722 349.794C410.386 346.781 410.697 347.018 412.18 345.073C412.945 344.069 414.911 341.103 416.542 338.576L419.518 333.899L419.914 338.666C420.148 341.325 420.368 345.164 420.468 347.224ZM43.8017 58.4864C38.4876 61.9757 18.8854 77.8889 10.4139 85.5196C-2.1186 96.8013 -13.1924 108.104 -31.9104 128.659C-34.2639 131.231 -43.8694 143.057 -53.2406 154.963L-70.3565 176.641L-82.1457 173.408C-88.65 171.624 -97.4548 169.377 -101.726 168.403L-109.469 166.568L-111.266 160.931C-118.906 136.653 -120.706 113.354 -116.513 93.9281L-114.814 85.8969L-105.171 82.5324C-69.1696 69.9935 -25.9126 60.7035 12.2833 57.2786C28.6645 55.7771 47.7385 54.7408 47.8723 55.3389C47.901 55.5593 46.0642 56.9371 43.8017 58.4864ZM144.426 133.709C147.711 139.586 158.13 154.673 164.509 162.811C174.394 175.505 180.72 182.809 197.845 201.221L201.56 205.244L191.988 216.898L182.416 228.551L169.358 237.944C162.188 243.094 150.344 251.924 143.074 257.593C135.741 263.215 129.073 268.351 128.155 269.04C126.366 270.355 124.931 269.658 106.261 258.302C95.3758 251.691 87.5566 247.119 74.0462 239.696C65.8348 235.123 51.3392 227.446 47.6281 225.609C31.9416 217.818 17.5321 210.801 13.553 209.058C10.9322 207.853 7.48406 206.316 5.87714 205.587C-4.60609 200.77 -35.0468 188.478 -38.5812 187.569C-39.6286 187.267 -40.346 186.919 -40.1546 186.668C-39.6762 186.04 -22.1796 178.047 -9.45182 172.569C35.117 153.564 83.7266 138.929 128.944 130.935C135.406 129.809 141.141 129.121 141.576 129.452C142.073 129.832 143.321 131.676 144.426 133.709ZM421.326 369.309C422.568 409.844 419.544 458.04 413.306 498.33C409.802 520.463 410.381 518.027 409.113 516.466C392.683 496.498 369.361 470.484 350.892 451.642L342.433 443.01L360.18 419.73C377.688 396.764 388.672 381.325 402.454 360.28C406.386 354.348 409.788 349.5 410.118 349.454C411.658 349.239 420.3 353.247 420.553 354.334C420.749 354.979 421.073 361.775 421.326 369.309ZM406.966 349.333C406.487 349.961 402.235 356.442 397.532 363.771C392.351 371.727 379.311 389.865 365.017 409.13C344.806 436.287 340.965 441.196 340.218 440.628C339.721 440.248 335.178 435.892 330.047 430.889C318.173 419.257 291.723 395.025 281.895 386.64C274.846 380.671 274.244 379.914 274.717 378.39C274.981 377.4 281.143 364.933 288.52 350.614C295.897 336.295 304.791 318.569 308.302 311.125C311.876 303.73 314.837 297.653 314.9 297.7C315.01 297.685 319.275 300.342 324.35 303.615C350.968 320.534 381.155 336.899 402.662 345.953C408.061 348.283 407.875 348.141 406.966 349.333ZM207.514 210.974C207.543 211.194 203.554 214.106 198.679 217.534C193.805 220.962 189.787 223.654 189.759 223.433C189.744 223.323 192.82 219.417 196.595 214.853L203.473 206.604L205.472 208.624C206.572 209.76 207.438 210.816 207.514 210.974ZM221.626 224.312C236.934 238.661 248.038 247.82 279.248 271.613C308.094 293.604 312.288 297 311.915 298.005C310.571 301.445 292.343 338.249 282.861 356.619L271.853 377.893L260.098 368.039C233.576 345.835 153.654 286.395 146.021 283.255L144.366 282.589L164.252 256.375L184.2 230.209L196.904 221.539L209.671 212.916L213.114 216.136C214.974 217.951 218.867 221.613 221.626 224.312ZM-90.0902 41.3449C-116.192 53.7915 -138.218 67.8562 -161.011 86.794C-172.836 96.631 -188.602 111.897 -198.624 123.108C-201.709 126.51 -205.641 129.863 -210.989 133.525C-225.893 143.792 -241.764 156.1 -254.469 167.35C-259.195 171.486 -262.993 174.147 -267.776 176.553C-271.516 178.365 -277.204 181.57 -280.571 183.666C-289.946 189.516 -290.056 189.531 -286.301 185.25C-284.454 183.086 -280.269 178.241 -277.069 174.43C-229.835 118.661 -163.4 70.5861 -92.692 41.1473C-75.0473 33.8622 -74.3107 33.9276 -90.0902 41.3449ZM158.302 260.57L142.846 281.231L140.359 279.336C138.991 278.293 135.83 276.379 133.353 274.987C130.937 273.642 128.915 272.298 128.886 272.078C128.814 271.527 145.479 258.435 161.676 246.474C168.564 241.307 174.897 236.61 175.815 235.921C178.097 234.089 176.389 236.458 158.302 260.57ZM-94.4341 48.8481C-101.169 55.6197 -110.737 69.4593 -113.89 77.0766C-115.248 80.4064 -116.588 83.453 -116.765 83.8142C-117.052 84.1907 -121.075 85.9858 -125.757 87.873C-145.024 95.6087 -171.226 108.574 -187.316 118.334C-191.047 120.649 -194.142 122.258 -194.171 122.038C-194.257 121.377 -183.833 110.67 -174.611 101.925C-157.788 86.1758 -135.048 68.9836 -115.91 57.6772C-108.214 53.1265 -89.8801 43.3902 -89.7606 43.8782C-89.7462 43.9883 -91.8606 46.246 -94.4341 48.8481ZM537.132 535.38C537.412 549.584 537.108 569.195 536.216 581.712C535.363 594.952 533.769 609.809 533.051 610.751C532.046 612.068 515.77 615.237 506.443 615.866C494.62 616.675 477.948 616.367 477.522 615.249C477.34 614.714 481.11 609.253 487.807 600.468C499.91 584.593 509.21 570.847 519.667 553.518C526.154 542.688 534.373 527.523 535.751 523.91C535.995 523.203 536.378 522.701 536.502 522.796C536.627 522.891 536.918 528.569 537.132 535.38ZM588.072 579.969C579.683 615.344 566.099 648.248 545.883 682.246C541.271 689.843 524.221 715.044 518.448 722.747L516.63 725.131L515.263 716.351L513.786 707.585L516.787 698.363C523.552 677.625 530.41 648.127 533.915 624.704L535.729 612.395L539.541 611.134C545.874 609.017 555.789 603.876 562.151 599.399C570.885 593.358 576.525 587.636 583.835 577.532C587.298 572.731 590.183 569.077 590.24 569.517C590.297 569.958 589.283 574.641 588.072 579.969ZM586.667 601.024C573.563 665.149 549.34 722.584 511.552 779.502C504.807 789.639 502.195 792.807 505.788 786.418C512.734 773.954 517.492 750.692 516.734 733.247L516.438 727.962L525.766 715.726C554.086 678.578 577.638 631.049 587.817 590.49C588.807 586.483 589.788 583.262 589.913 583.357C590.099 583.499 588.668 591.437 586.667 601.024ZM250.399 363.224C259.686 370.9 267.945 377.99 268.811 379.046C270.293 380.97 270.245 381.033 264.964 390.798C256.261 406.984 236.259 442.634 226.003 460.215C209.895 487.92 201.982 501.136 201.542 501.197C200.82 501.242 169.759 479.448 148.894 464.137C125.743 447.182 88.9002 417.111 68.8247 398.83L65.2716 395.625L74.4277 382.067C100.873 342.994 119.73 316.195 133.239 298.217L143.701 284.364L151.793 289.739C178.603 307.697 222.566 340.419 250.399 363.224ZM291.072 398.2C305.146 410.814 317.895 422.716 326.436 431.113C328.932 433.512 332.715 437.189 334.824 439.194C337.492 441.625 338.712 443.249 338.467 443.956C337.616 446.879 300.5 491.31 274.506 520.507C267.125 528.771 260.825 535.874 260.538 536.251C259.964 537.004 255.21 534.471 243.249 527.337C224.842 516.281 209.973 507.03 206.492 504.375C203.508 502.101 202.795 503.938 214.152 484.915C231.226 456.458 266.943 393.101 271.68 383.02C272.435 381.512 272.871 381.844 291.072 398.2ZM131.484 296.779C120.577 311.086 96.0989 345.904 77.7865 373.019C62.397 395.914 63.8129 394.315 61.2067 391.931C52.8283 384.353 39.027 371.252 32.3798 364.498C28.0712 360.221 28.0569 360.111 29.6115 358.716C30.4677 357.98 38.3077 350.662 46.9418 342.56C62.3062 328.079 83.8029 308.649 95.503 298.718C107.964 288.175 125.361 274.252 126.446 273.988C127.154 273.833 129.727 275.1 132.558 277.06C135.28 279.035 138.469 281.17 139.636 281.96L141.721 283.351L131.484 296.779ZM-118.857 93.1338C-123.197 110.561 -121.154 137.023 -113.715 161.049C-112.96 163.411 -112.467 165.473 -112.563 165.598C-112.611 165.661 -116.557 165.034 -121.253 164.232C-155.344 157.888 -192.167 156.803 -218.516 161.322L-227.115 162.803L-223.088 156.746C-220.834 153.403 -215.032 145.921 -210.191 140.086L-201.322 129.484L-191.143 123.354C-177.755 115.205 -164.994 108.265 -151.075 101.612C-138.892 95.8182 -118.42 87.017 -117.861 87.4436C-117.674 87.5858 -118.129 90.1165 -118.857 93.1338ZM116.048 278.86C92.423 297.858 64.1914 322.77 36.6818 348.926C31.2048 354.176 26.5075 358.533 26.2874 358.564C26.0674 358.594 24.7954 357.426 23.4803 355.927C22.1174 354.492 18.9421 351.178 16.3072 348.574C13.72 345.907 10.1717 342.309 8.48367 340.526C6.78129 338.633 3.91679 335.556 2.10439 333.679C0.33983 331.738 -2.5246 328.661 -4.21268 326.878C-7.47884 323.297 -24.9619 303.42 -28.0702 299.761C-29.0601 298.61 -30.992 296.244 -32.4457 294.54C-49.9383 274.16 -76.0231 236.812 -87.2358 216.061L-89.1533 212.515L-78.8216 206.7C-60.3537 196.272 -43.5602 188.04 -42.0297 188.611C-24.7122 195.166 -7.3851 202.224 4.8007 207.644C21.9794 215.283 48.5507 228.396 63.0271 236.356C82.3816 246.944 98.7231 256.326 110.899 263.822C114.978 266.337 119.182 268.946 120.272 269.579C121.425 270.259 122.764 271.082 123.371 271.446C124.227 271.999 123.146 273.159 116.048 278.86ZM347.979 452.497C349.605 454.233 352.967 457.688 355.415 460.15C357.864 462.612 360.915 465.831 362.23 467.33C363.545 468.828 366.472 471.952 368.686 474.335C372.574 478.39 394.437 503.094 398.286 507.716C399.276 508.867 401.27 511.28 402.662 512.936C406.822 517.795 409.108 520.728 409.165 521.168C409.567 525.542 392.037 597.407 390.545 597.559C390.105 597.62 374.906 592.284 367.66 589.539C360.993 586.937 337.176 576.916 332.107 574.539C330.189 573.573 327.334 572.29 325.961 571.64C321.375 569.533 308.352 563.276 304.751 561.424C295.086 556.437 280.232 548.585 274.981 545.673C271.724 543.885 267.563 541.606 265.645 540.64C263.727 539.674 262.14 538.662 262.049 538.395C262.068 538.112 268.483 530.6 276.404 521.756C300.887 494.284 325.642 465.035 337.362 449.661L340.806 445.144L342.929 447.258C344.029 448.394 346.353 450.762 347.979 452.497ZM528.082 644.863C524.616 662.561 520.458 679.235 516.046 693.532C514.448 698.465 513.141 702.629 512.998 702.817C512.902 702.942 511.698 698.849 510.412 693.702C507.73 683.422 501.902 666.18 497.284 655.218C494.936 649.658 482.318 623.271 480.061 619.268C479.707 618.701 480.009 618.435 481.027 618.517C492.908 619.438 514.435 617.891 525.527 615.333L533.251 613.582L532.313 621.003C531.729 625.121 529.872 635.81 528.082 644.863ZM421.049 535.883C432.726 550.738 444.265 566.679 453.183 580.125C469.139 604.195 474.485 613.43 473.242 615.062C470.945 618.074 427.873 609.843 401.401 601.37L392.979 598.621L396.587 585.894C401.066 569.961 404.866 554.403 408.479 537.413C409.996 530.136 411.341 524.117 411.437 523.991C411.532 523.866 412.03 524.245 412.508 524.907C412.924 525.522 416.817 530.474 421.049 535.883ZM-47.4245 187.178C-47.5202 187.303 -53.7431 190.695 -61.3388 194.727C-68.8866 198.696 -77.7306 203.463 -80.9545 205.371C-88.2536 209.53 -89.2772 209.841 -87.1245 207.017C-86.3256 205.841 -83.6562 201.823 -81.3361 198.135C-79.0159 194.447 -75.2128 188.813 -72.9309 185.691L-68.75 179.949L-64.7947 181.079C-58.1517 183.068 -48.2136 186.278 -47.6683 186.595C-47.4197 186.784 -47.3288 187.052 -47.4245 187.178ZM-77.3697 188.161C-80.661 192.994 -85.0238 199.491 -87.1335 202.645L-90.8123 208.373L-94.6135 201.11C-98.4292 193.736 -104.401 180.552 -107.088 173.245L-108.56 169.245L-100.817 171.08C-89.0999 173.762 -73.5421 177.983 -72.3752 178.773C-71.457 179.374 -72.2272 180.771 -77.3697 188.161ZM-108.351 176.449C-106.692 180.591 -102.432 190.089 -98.822 197.604C-95.1642 205.056 -92.3384 211.278 -92.4341 211.403C-92.5298 211.529 -98.0161 214.986 -104.641 219.163C-169.339 259.93 -226.4 311.183 -269.482 367.437C-278.284 378.983 -281.293 382.543 -281.852 382.117C-283.158 381.121 -297.397 351.316 -301.107 341.741L-304.635 332.701L-301.778 322.377C-286.274 267.225 -264.831 218.981 -236.453 175.826L-229.804 165.814L-222.491 164.344C-205.349 160.942 -176.8 159.985 -154.125 162.091C-143.187 163.088 -112.841 167.768 -111.674 168.558C-111.425 168.748 -109.9 172.291 -108.351 176.449ZM486.128 637.486C497.986 661.905 505.951 683.951 509.951 703.074L511.074 708.693L506.438 720.835C503.893 727.526 499.993 737.154 497.75 742.29L493.697 751.602L485.766 759.943C465.154 781.436 440.022 803.055 414.192 821.464C403.019 829.416 386.239 840.337 384.555 840.74C382.542 841.189 367.868 840.322 356.117 839.102C343.974 837.881 310.337 831.586 308.597 830.259C308.286 830.022 306.789 826.698 305.235 822.934C303.667 819.06 300.923 812.602 299.058 808.601L295.745 801.213L303.671 789.397C308.02 782.79 314.689 772.495 318.482 766.358L325.381 755.247L336.382 747.263C385.927 711.414 427.974 673.023 463.363 631.244C468.998 624.626 474.025 618.933 474.485 618.589C474.896 618.307 475.805 618.405 476.426 618.879C477.048 619.353 481.385 627.719 486.128 637.486ZM465.301 625.478C428.099 669.249 390.089 704.665 342.687 739.766C336.909 743.993 331.556 748.048 330.858 748.707C329.035 750.194 327.993 749.499 329.38 747.679C331.389 745.044 343.129 722.939 349.76 709.341C365.146 677.811 378.744 643.728 389.596 609.635L392.419 600.774L396.714 602.361C411.052 607.537 442.761 614.942 458.63 616.821C464.881 617.518 470.19 618.291 470.486 618.418C470.783 618.545 468.405 621.792 465.301 625.478ZM-82.7991 227.777C-60.1723 265.664 -25.6848 308.624 16.4742 351.579C21.0602 356.265 24.8093 360.116 24.7615 360.178C24.7758 360.289 19.7723 365.305 13.659 371.26C-7.0964 391.652 -32.2577 418.21 -56.1659 444.929C-63.5948 453.255 -69.952 459.918 -70.5164 459.885C-71.0329 459.789 -75.1028 457.778 -79.6222 455.324C-108.106 439.563 -151.239 419.678 -175.372 411.103C-178.777 409.896 -181.585 408.55 -181.58 408.156C-181.632 407.323 -172.312 380.397 -167.771 368.38C-153.274 330.022 -134.208 288.895 -113.891 251.798C-107.183 239.648 -94.1568 217.531 -92.0519 214.77L-90.856 213.202L-89.4024 216.195C-88.6374 217.77 -85.6585 223.018 -82.7991 227.777ZM-97.6006 219.47C-100.136 222.796 -114.148 247.237 -121.985 261.9C-144.097 303.284 -165.703 353.288 -181.148 398.564L-184.273 407.691L-194.976 404.195C-220.491 395.757 -249.058 389.258 -270.35 387.016C-275.458 386.495 -279.763 385.694 -279.758 385.301C-279.93 383.979 -255.131 352.481 -243.947 339.874C-208.056 299.371 -167.933 264.276 -122.894 233.822C-104.211 221.178 -96.9211 216.515 -96.3615 216.942C-96.1129 217.131 -96.6917 218.278 -97.6006 219.47ZM-220.442 149.536L-231.157 163.591L-238.288 165.596C-242.239 166.652 -247.515 168.286 -249.973 169.19C-252.48 170.156 -254.479 170.716 -254.555 170.558C-254.584 170.338 -253.441 169.225 -252.125 168.144C-250.762 167.001 -246.419 163.367 -242.473 160.124C-238.589 156.835 -230.146 150.273 -223.875 145.529C-217.542 140.832 -211.826 136.558 -211.223 136.025C-210.606 135.603 -209.975 135.29 -209.913 135.338C-209.788 135.432 -214.558 141.817 -220.442 149.536ZM384.688 617.105C369.472 662.853 352.411 701.737 329.5 743.008L323.453 753.777L315.527 759.145C307.903 764.247 284.499 779.345 283.963 779.532C283.853 779.547 282.361 777.12 280.625 774.11C277.154 768.09 259.992 742.505 255.53 736.624C253.924 734.605 251.485 731.357 250.127 729.528C234.256 708.697 216.299 687.765 196.382 666.827C193.532 663.86 189.706 659.852 187.894 657.974C186.129 656.034 182.581 652.436 180.022 649.989C168.584 638.689 166.542 636.339 167.116 635.586C167.451 635.147 174.693 627.968 183.284 619.535C204.738 598.486 226.775 575.896 243.771 557.599C251.626 549.102 258.667 541.67 259.475 540.997C260.523 540.01 261.212 540.138 263.077 541.56C264.258 542.46 267.233 544.232 269.586 545.529C271.924 546.717 277.955 550.025 282.943 552.637C315.889 570.411 349.386 585.529 378.578 595.977C382.811 597.517 386.546 598.678 386.828 598.694C387.096 598.601 387.938 599.044 388.746 599.66C389.927 600.561 389.544 602.353 384.688 617.105ZM513.235 720.559L513.951 727.356L509.105 733.583C506.474 737.035 503.116 740.924 501.672 742.303L499.084 744.795L501.892 738.403C503.332 734.838 506.131 727.943 507.949 722.979C509.83 718.062 511.466 713.853 511.609 713.664C512.183 712.912 512.465 714.218 513.235 720.559ZM514.136 739.105C514.076 754.141 510.592 770.832 504.889 782.955C497.785 798.077 488.476 808.74 473.586 819.117C468.649 822.498 450.114 831.982 449.368 831.413C449.12 831.223 452.669 825.794 457.314 819.314C469.288 802.447 479.655 784.851 490.161 763.591C495.261 753.291 495.916 752.302 501.417 746.375C504.551 742.91 508.641 738.19 510.458 735.806C512.228 733.484 513.788 731.696 513.912 731.791C514.036 731.886 514.136 735.236 514.136 739.105ZM40.313 375.11C47.0271 381.518 54.6881 388.748 57.3566 391.179C60.1494 393.705 62.067 395.96 61.8565 396.494C61.6938 396.966 58.4456 402.129 54.6089 407.935C43.5152 424.679 27.8863 449.178 11.8651 474.964C3.76596 488.038 -3.1324 499.15 -3.41942 499.527C-3.80211 500.029 -9.05322 497.117 -20.7605 489.78C-29.9761 483.945 -44.3185 475.293 -52.5586 470.499C-60.8465 465.769 -67.5896 461.719 -67.604 461.609C-67.7091 461.231 -41.7009 432.144 -30.1439 419.821C-11.8613 400.223 22.886 364.702 25.6555 362.745C26.6839 362.041 25.9857 361.409 40.313 375.11ZM251.062 546.489C215.544 584.697 165.174 635.296 163.873 633.908C162.836 632.819 150.038 620.98 143.506 615.107C139.891 611.854 136.897 609.076 136.868 608.856C136.84 608.636 141.365 601.668 146.833 593.335C158.984 574.817 181.483 538.986 193.476 519.257C198.312 511.237 202.379 504.613 202.489 504.598C202.551 504.645 207.19 507.586 212.761 511.238C223.22 518.021 229.37 521.817 241.145 528.808C244.899 530.976 250.116 534.061 252.67 535.611C255.286 537.208 257.529 538.521 257.826 538.648C258.012 538.79 254.941 542.303 251.062 546.489ZM-239.596 176.208C-260.501 208.788 -276.413 241.008 -289.825 277.813C-294.614 290.93 -302.15 314.355 -304.246 322.778C-304.792 325.041 -305.538 327.051 -305.84 327.318C-306.868 328.022 -313.04 306.847 -315.233 295.154C-318.555 278.235 -318.816 261.169 -316.226 244.491L-315.12 237.495L-302.262 221.402C-289.609 205.45 -279.429 194.16 -266.394 181.575C-260.233 175.556 -259.301 174.977 -253.264 172.733C-245.889 170.021 -233.97 166.507 -233.912 166.948C-233.836 167.105 -236.429 171.28 -239.596 176.208ZM85.8632 416.582C99.5212 428.581 176.487 487.256 190.571 496.505C195.832 499.92 200.155 503.017 200.15 503.41C200.456 505.33 136.62 606.087 134.97 606.317C134.64 606.363 129.762 602.446 124.143 597.567C92.6665 570 43.9303 532.449 11.5491 510.839C4.18909 505.922 -1.87974 501.891 -1.9419 501.844C-2.24791 501.214 58.2442 405.746 62.7408 399.847L64.3673 397.714L69.5512 402.261C72.344 404.787 79.7324 411.213 85.8632 416.582ZM-271.785 183.617C-280.247 191.751 -291.302 204.06 -301.639 216.717C-311.532 228.92 -312.517 229.955 -311.828 227.504C-309.923 220.621 -302.302 205.595 -297.423 199.195C-295.844 197.124 -292.372 194.116 -288.416 191.377C-281.643 186.619 -268.197 178.911 -268.049 179.619C-268.068 179.902 -269.738 181.705 -271.785 183.617ZM477.914 782.234C471.466 793.788 461.08 810.377 451.881 823.605L445.284 833.161L437.397 835.383C427.998 838.041 405.571 841.283 396.771 841.222C393.351 841.194 390.529 841.028 390.5 840.807C390.472 840.587 393.543 838.364 397.417 835.861C426.059 817.116 457.022 792.103 478.184 770.533C483.427 765.204 488.143 760.564 488.712 760.204C489.946 759.359 485.215 769.047 477.914 782.234ZM481.884 819.193C443.443 865.491 395.92 905.263 344.563 934.076C329.271 942.658 319.308 947.862 319.236 947.311C319.145 947.043 322.656 944.759 327.033 942.242C366.207 919.223 403.312 887.185 434.955 848.901L446.436 835.131L451.497 833.135C463.794 828.222 477.861 819.698 485.606 812.505C487.906 810.39 489.872 808.713 490.059 808.856C490.183 808.95 486.533 813.609 481.884 819.193ZM-315.712 232.083C-316.564 235.005 -317.994 237.784 -320.386 240.922C-332.236 256.594 -350.558 288.365 -360.835 311.387C-362.835 315.816 -364.605 319.427 -364.825 319.458C-365.265 319.52 -359.543 305.824 -354.577 294.926C-343.515 270.616 -328.934 244.526 -315.994 225.618L-311.104 218.431L-312.793 223.096C-313.75 225.641 -315.071 229.694 -315.712 232.083ZM-320.351 263.57C-320.856 280.35 -317.659 299.754 -310.689 322.331L-307.218 333.51L-309.673 343.048C-311.008 348.281 -313.669 360.54 -315.608 370.175L-319.039 387.7L-324.085 388.516C-343.073 391.503 -363.187 401.768 -376.91 415.515C-382.01 420.656 -390.022 431.812 -392.458 437.198C-393.137 438.863 -393.921 440.15 -394.079 440.228C-395.399 440.412 -388.77 402.704 -384.544 385.685C-375.236 348.331 -361.543 314.122 -341.828 278.848C-337.752 271.438 -323.161 248.43 -319.909 244.164C-318.186 241.905 -318.172 242.015 -319.134 248.822C-319.651 252.595 -320.236 259.293 -320.351 263.57ZM431.99 848.922C396.505 892.117 350.317 929.235 301.792 953.559C289.748 959.558 288.677 959.931 291.203 957.392C296.857 951.781 307.233 937.267 310.309 930.782C316.347 918.22 319.812 901.812 319.594 887.656L319.437 879.996L332.27 873.607C345.83 866.78 360.189 858.776 376.089 849.267L385.698 843.496L394.436 843.51C404.413 843.575 428.141 840.432 436.406 838.101C439.367 837.183 441.758 836.625 441.773 836.735C441.739 836.908 437.357 842.397 431.99 848.922ZM98.7059 578.969C117.543 594.619 133.267 608.293 133.319 609.127C133.506 610.559 99.2014 659.813 75.8424 691.614L59.2955 714.222L47.2344 706.317C40.6683 701.906 30.4293 695.093 24.4848 691.157C9.20525 680.897 -42.2665 642.551 -57.6271 629.948L-70.7209 619.271L-63.0377 605.583C-46.3894 576.008 -7.58199 510.145 -4.0899 505.564L-2.84613 503.933L14.748 516.056C24.3462 522.678 33.2748 528.89 34.5517 529.665C40.7926 533.728 86.5303 568.893 98.7059 578.969ZM-15.8624 520.104C-28.3532 540.744 -54.8134 586.155 -64.3431 603.298C-68.0651 609.985 -71.4952 615.903 -71.9735 616.53C-72.6911 617.472 -73.2841 617.218 -76.4978 614.47C-78.5781 612.686 -85.144 606.986 -91.2461 601.838C-108.137 587.374 -138.25 559.952 -141.636 555.883L-142.889 554.432L-119.458 524.471C-94.3394 492.424 -70.4883 463.974 -68.9052 464.09C-66.8056 464.301 -18.7474 493.199 -8.20239 500.643L-5.2469 502.698L-15.8624 520.104ZM150.918 624.726C157.293 630.677 162.548 635.775 162.577 635.995C162.849 638.088 72.2802 718.465 68.5351 719.38C67.8894 719.583 65.9859 718.727 64.3696 717.495L61.4476 715.267L77.6597 693.098C91.9247 673.613 109.792 648.241 129.343 619.887L135.462 610.959L137.327 612.381C138.384 613.186 144.481 618.727 150.918 624.726ZM177.817 650.69C212.717 685.63 242.7 721.088 264.907 753.594C272.921 765.26 282.074 780.076 281.691 780.578C280.782 781.77 238.393 805.91 236.49 806.344C234.634 806.715 200.645 792.114 177.689 780.964C144.159 764.729 111.873 746.863 74.8621 724.104L70.4719 721.353L76.6855 716.168C95.6085 700.63 130.805 669.419 152.12 649.454C165.088 637.215 164.217 637.841 165.896 639.121C166.642 639.689 172.084 644.93 177.817 650.69ZM300.161 790.392L294.473 798.755L292.923 795.887C292.048 794.327 289.882 790.593 288.147 787.583C286.411 784.573 284.905 782.035 284.89 781.925C284.828 781.878 288.593 779.39 293.304 776.433C298.016 773.477 305.449 768.626 309.83 765.716C314.212 762.805 318.277 760.051 318.909 759.738C320.157 759.003 308.532 778.121 300.161 790.392ZM-75.3241 466.836C-86.7616 479.647 -101.065 497.119 -121.85 523.739L-144.802 553.073L-146.49 551.29C-147.403 550.296 -151.325 546.413 -155.232 542.641C-168.531 529.526 -200.46 495.461 -204.085 490.416C-205.783 488.13 -184.651 411.669 -182.231 411.331C-181.791 411.27 -176.573 413.065 -170.734 415.334C-146.673 424.648 -117.313 438.1 -92.6691 451.034C-85.7489 454.722 -78.36 458.569 -76.2558 459.677C-74.1515 460.785 -72.1094 461.846 -71.8129 461.972C-71.502 462.209 -73.0663 464.39 -75.3241 466.836ZM-185.56 411.572C-185.789 412.389 -187.177 416.788 -188.646 421.423C-192.775 434.447 -198.647 455.172 -202.848 471.515C-204.925 479.655 -206.796 486.365 -207.064 486.458C-207.614 486.535 -219.148 472.781 -229.855 459.36C-239.897 446.744 -256.945 423.33 -263.472 413.195C-268.459 405.424 -277.176 390.94 -277.692 389.554C-278.347 387.964 -256.136 390.807 -238.048 394.675C-223.012 397.903 -188.854 407.77 -185.975 409.667C-185.492 409.936 -185.378 410.817 -185.56 411.572ZM370.306 850.018C355.23 858.964 322.302 876.624 319.629 877.166C319.519 877.181 319.065 874.553 318.539 871.374C316.862 859.777 313.444 845.563 310.274 836.697L308.998 833.343L327.421 836.771C346.016 840.232 362.368 842.379 373.799 842.858C377.233 842.996 380.179 843.257 380.428 843.447C380.724 843.574 376.123 846.515 370.306 850.018ZM288.361 791.814L292.904 800.04L290.995 803.446C289.842 805.345 286.503 810.241 283.441 814.257L277.954 821.583L266.065 817.58C254.458 813.592 239.168 807.989 239.359 807.738C239.407 807.675 243.64 805.346 248.868 802.485C254.048 799.688 263.529 794.215 269.976 790.399C282.92 782.705 282.762 782.783 283.384 783.257C283.632 783.447 285.875 787.339 288.361 791.814ZM-301.318 347.433C-299.219 352.804 -290.192 371.393 -285.884 379.539C-284.244 382.675 -283.005 385.306 -283.149 385.494C-283.245 385.619 -287.482 385.762 -292.408 385.777C-297.445 385.807 -304.695 386.034 -308.622 386.414C-312.487 386.841 -315.83 386.971 -316.016 386.829C-316.763 386.261 -306.913 339.299 -305.717 337.73C-305.526 337.479 -304.832 338.504 -304.239 340.047C-303.709 341.543 -302.37 344.945 -301.318 347.433ZM298.053 811.208C304.178 824.708 305.847 829.353 304.531 829.144C302.37 828.885 281.13 822.318 281.087 821.987C281.035 821.153 293.869 803.157 294.305 803.489C294.553 803.678 296.236 807.144 298.053 811.208ZM312.434 851.143C313.5 855.031 315.116 862.712 315.99 868.141L317.548 877.961L310.512 881.13C278.422 895.758 240.421 908.856 204.558 917.731C185.675 922.385 180.012 923.624 179.515 923.245C179.156 923.071 179.285 922.773 179.711 922.601C181.098 922.071 200.255 906.613 209.153 898.81C220.413 888.94 234.529 875.194 245.258 863.828C252.873 855.644 271.051 834.378 276.758 827.021C278.432 824.825 279.494 823.948 280.054 824.374C280.475 824.596 286.663 826.536 293.808 828.51L306.817 832.078L308.658 838.045C309.7 841.32 311.416 847.192 312.434 851.143ZM-276.043 397.062C-262.339 420.606 -240.142 451.32 -216.036 479.916C-207.16 490.453 -207.022 490.658 -207.692 491.536C-208.84 493.042 -219.264 548.495 -221.362 564.656C-225.297 593.802 -227.986 631.241 -227.773 652.239C-227.783 653.025 -229.615 652.72 -234.192 651.116C-258.922 642.681 -282.654 638.48 -299.064 639.761C-302.393 640.001 -305.358 640.023 -305.545 639.88C-305.793 639.691 -307.098 634.826 -308.408 629.066C-320.544 577.547 -325.86 522.497 -323.982 468.069L-323.583 456.07L-317.321 444.373C-304.122 419.71 -283.23 387.019 -281.428 388.394C-281.117 388.631 -278.702 392.555 -276.043 397.062ZM-291.176 396.539C-301.275 411.462 -314.651 433.908 -321.195 446.877C-322.884 450.253 -322.932 450.315 -322.984 448.192C-322.916 442.687 -320.306 415.408 -318.649 403.177L-316.82 389.689L-310.143 388.925C-303.562 388.287 -287.133 388.012 -286.387 388.581C-286.139 388.771 -288.363 392.333 -291.176 396.539ZM273.697 827.168C268.626 833.82 251.597 853.579 243.632 862.092C222.427 884.621 201.155 903.627 176.186 922.196C173.273 924.341 170.532 925.228 161.349 926.958C133.326 932.384 73.5261 937.198 73.3448 934.083C73.3353 933.58 73.4075 930.262 73.561 926.708C74.1079 915.417 70.4224 901.296 62.6191 885.227L57.9525 875.617L65.8348 873.788C120.633 861.093 166.163 844.308 223.446 815.847L236.485 809.316L245.323 812.681C250.163 814.585 258.91 817.681 264.754 819.557C270.599 821.433 275.582 823.148 275.941 823.322C276.237 823.449 275.18 825.223 273.697 827.168ZM221.002 814.281C171.42 839.089 129.224 855.24 82.5755 867.302C64.5246 871.896 57.068 873.554 56.3219 872.985C55.9011 872.764 53.5915 869.217 50.9903 865.15C41.4986 849.878 22.9972 827.34 4.45217 808.34L-4.39476 799.314L0.527577 793.244C3.17294 789.903 12.4915 778.453 21.0159 767.787L36.6441 748.448L48.1767 739.38C54.529 734.4 61.7375 728.684 64.1148 726.726L68.4581 723.092L75.2012 727.141C78.9554 729.309 87.9416 734.671 95.1678 738.989C137.793 764.44 190.85 791.295 224.246 804.352C227.838 805.701 231.224 807.191 231.831 807.555C232.749 808.156 230.363 809.61 221.002 814.281ZM-319.868 395.105C-320.945 401.031 -324.106 429.676 -325.184 443.34C-326.137 455.809 -326.266 456.108 -330.295 464.744C-346.642 499.212 -359.346 539.731 -364.119 571.91C-364.823 576.83 -365.532 580.854 -365.752 580.885C-366.302 580.962 -378.824 555.739 -382.362 547.485C-386.737 537.106 -392.933 519.186 -395.041 510.733C-398.282 497.448 -397.156 453.162 -393.233 444.147C-386.98 429.369 -375.734 415.519 -362.948 406.613C-357.457 402.763 -348.048 398.029 -340.295 395.209C-332.652 392.403 -319.848 389.663 -319.437 390.671C-319.317 391.159 -319.451 393.14 -319.868 395.105ZM317.474 890.307C317.108 911.161 310.797 929.368 298.503 945.495C287.773 959.441 284.42 961.647 265.087 967.149C228.057 977.813 187.069 978.712 140.882 969.795C127.266 967.153 110.871 963.386 111.158 963.009C111.254 962.884 117.3 959.853 124.608 956.198C138.499 949.325 154.996 939.676 166.404 931.804C172.417 927.656 174.009 926.985 180.93 925.515C224.072 916.633 269.324 902.018 309.392 884.146C313.367 882.413 316.787 881.151 317.098 881.388C317.347 881.578 317.533 885.589 317.474 890.307ZM-193.125 506.212C-181.409 519.212 -168.058 533.161 -156.356 544.761C-152.635 548.391 -148.886 552.241 -147.925 553.172L-146.175 555.003L-154.556 566.77C-178.393 600.489 -205.24 641.636 -213.287 656.834C-214.234 658.592 -214.564 658.638 -218.639 657.02C-220.997 656.115 -223.479 655.116 -224.182 654.878C-226.774 653.894 -224.28 605.492 -219.784 570.324C-216.365 543.661 -206.553 492.106 -204.999 493.291C-204.688 493.528 -199.332 499.397 -193.125 506.212ZM-132.947 567.567C-118.041 581.411 -104.34 593.741 -91.127 604.905C-84.2023 610.78 -77.512 616.575 -76.2257 617.853C-73.9159 620.11 -73.9016 620.22 -75.6669 623.438C-81.4077 633.547 -99.3671 667.679 -108.854 686.442C-114.93 698.28 -120.087 708.14 -120.369 708.123C-120.637 708.217 -125.42 705.464 -130.9 702.079C-158.275 685.378 -182.698 672.414 -207.166 661.699C-209.6 660.637 -211.656 659.466 -211.652 659.072C-211.656 658.176 -197.453 634.774 -186.833 618.264C-177.652 604.03 -165.143 585.686 -152.882 568.443L-144.262 556.362L-143.009 557.813C-142.406 558.57 -137.801 562.974 -132.947 567.567ZM54.5485 731.538C48.6698 736.283 43.5708 740.135 43.1929 740.244C42.8151 740.353 46.3312 735.096 51.1005 728.711L59.6538 716.975L62.8436 719.109C64.9287 720.501 65.8421 721.495 65.5838 722.091C65.3733 722.625 60.3794 726.855 54.5485 731.538ZM50.1586 726.207C36.1853 746.213 36.6301 745.758 20.1469 758.096C5.56259 769.103 -17.689 785.806 -18.5212 785.866C-18.7413 785.897 -21.8927 783.196 -25.5224 779.834C-36.9709 769.32 -84.4158 732.655 -101.546 721.084C-109.901 715.409 -117.074 710.635 -117.447 710.351C-118.256 709.735 -107.381 687.862 -89.6992 654.611C-81.5567 639.288 -74.2658 625.598 -73.5434 624.263L-72.1799 621.83L-31.5832 652.779C0.309755 677.092 13.2459 686.557 28.8842 696.991C39.807 704.326 48.927 710.286 49.147 710.255C49.367 710.225 51.3277 711.521 53.4415 713.132L57.296 716.071L50.1586 726.207ZM-326.541 472.071C-328.28 524.124 -322.262 583.282 -310.331 631.072C-309.184 636.015 -308.343 640.327 -308.582 640.641C-308.869 641.017 -310.682 641.719 -312.633 642.216C-314.585 642.712 -317.737 643.881 -319.693 644.771C-322.218 646.021 -323.271 646.111 -323.825 645.292C-324.193 644.614 -327.125 640.594 -330.319 636.273C-338.912 624.464 -351.45 605.579 -357.967 594.658L-363.715 584.918L-362.671 577.876C-359.143 552.487 -351.835 524.721 -342.151 498.865C-338.147 488.325 -328.358 465.427 -327.066 463.733C-326.253 462.666 -326.224 462.886 -326.541 472.071ZM5.30698 783.493C-0.949975 790.927 -6.25015 797.106 -6.47018 797.137C-6.97237 797.151 -16.1685 788.453 -16.2545 787.792C-16.2831 787.572 -9.79215 782.797 -1.84713 777.146C6.09789 771.495 15.674 764.608 19.3476 761.852L26.0299 756.826L21.337 763.369C18.7825 766.977 11.5018 776.012 5.30698 783.493ZM268.344 968.937C239.598 979.566 194.561 990.675 167.132 993.775C129.113 998.128 85.2022 995.51 46.9554 986.494C42.278 985.408 38.3371 984.388 38.1506 984.246C37.9641 984.104 42.0679 983.363 47.2238 982.531C63.2418 979.959 77.8346 975.903 96.1347 968.919L107.499 964.586L118.212 967.296C140.155 972.812 167.746 976.979 188.13 977.835C213.69 978.865 242.468 975.801 262.48 969.924C270.085 967.685 272.993 967.223 268.344 968.937ZM-37.0336 773.142C-31.3523 778.069 -25.3459 783.342 -23.7487 784.857L-20.8029 787.698L-29.6758 793.535C-58.6048 812.656 -84.3575 827.353 -109.081 838.766L-120.379 844.044L-140.909 828.294C-152.224 819.668 -161.516 812.386 -161.497 812.103C-161.66 811.284 -153.923 790.691 -148.89 778.157C-143.067 763.943 -137.79 751.992 -127.671 730.338C-120.322 714.509 -119.375 712.751 -118.203 713.148C-116.922 713.53 -96.0085 727.488 -82.6802 736.954C-74.359 742.802 -49.1278 762.831 -37.0336 773.142ZM157.044 935.185C142.656 944.258 135.562 948.276 120.821 955.493L107.404 962.132L97.4322 959.094C80.5974 954.098 68.1963 949.605 68.5694 948.6C68.78 948.066 69.6891 945.584 70.646 943.039C71.6029 940.494 72.5406 938.233 72.6841 938.044C72.8276 937.856 78.2132 937.497 84.5695 937.283C109.665 936.471 141.127 933.37 158.001 930.061C162.64 929.133 166.491 928.596 166.567 928.753C166.534 928.926 162.262 931.821 157.044 935.185ZM-121.862 712.144C-122.154 712.914 -125.264 719.572 -128.775 727.015C-140.985 752.831 -151.582 777.692 -159.826 799.982C-161.903 805.543 -163.778 810.066 -164.046 810.159C-165.036 810.298 -206.679 773.888 -212.518 767.75C-215.756 764.389 -221.959 726.621 -223.992 698.083C-224.484 690.862 -224.889 684.302 -224.942 683.469C-224.884 682.62 -222.918 678.364 -220.401 674.032C-217.947 669.652 -215.412 665.036 -214.785 663.827L-213.627 661.535L-204.172 665.766C-183.684 674.738 -159.633 687.418 -136.29 701.542C-121.154 710.7 -121.278 710.605 -121.862 712.144ZM-11.7885 795.86C-8.34535 799.08 -8.05366 799.6 -8.96256 800.793C-10.4933 802.801 -30.412 825.318 -37.8553 833.535C-51.0722 848.164 -75.9033 873.386 -77.209 873.68C-77.8691 873.773 -91.7666 864.666 -110.121 851.864L-119.035 845.763L-113.736 843.453C-87.6487 832.186 -57.5195 814.972 -19.6027 789.605C-18.9856 789.183 -18.0961 789.563 -17.2305 790.62C-16.3315 791.504 -14.0074 793.871 -11.7885 795.86ZM10.8357 818.664C26.4443 835.326 35.5923 846.665 46.6717 862.95C50.4923 868.64 53.4904 873.605 53.2991 873.856C51.8161 875.801 -1.207 883.202 -21.5053 884.297C-39.4649 885.29 -60.5331 885.203 -62.073 884.128C-62.819 883.559 -65.9945 881.535 -69.1222 879.449C-75.9083 875.069 -76.0472 876.154 -67.5996 867.909C-53.9763 854.681 -37.1239 836.573 -18.9368 815.811C-12.5076 808.409 -7.04961 802.152 -6.81043 801.838C-6.23638 801.085 -0.870867 806.168 10.8357 818.664ZM-397.109 525.825C-394.12 560.846 -384.245 602.307 -371.068 635.569C-368.984 640.829 -367.402 647.393 -365.978 656.614C-363.493 672.697 -360.018 687.351 -355.854 699.555C-351.355 712.608 -351.355 712.608 -355.008 704.763C-356.811 700.81 -360.698 691.596 -363.542 684.367C-384.512 631.67 -396.146 576.268 -398.586 517.06C-398.782 513.835 -398.781 511.255 -398.595 511.398C-398.471 511.492 -397.797 517.959 -397.109 525.825ZM-391.667 529.776C-387.398 542.357 -378.849 561.574 -371.916 574.4L-365.948 585.398L-366.782 593.197C-367.835 603.605 -368.441 620.904 -368.064 629.823C-367.878 633.834 -367.855 637.027 -368.041 636.885C-368.601 636.458 -374.151 620.916 -377.354 610.933C-383.928 590.543 -388.502 570.884 -391.919 548.931C-394.04 535.209 -396.032 517.32 -395.181 519.556C-394.923 520.249 -393.317 524.847 -391.667 529.776ZM-216.794 662.594C-218.884 666.755 -224.333 676.094 -224.711 676.203C-225.213 676.217 -225.622 659.733 -225.163 658.099C-224.885 657.219 -219.959 658.494 -216.296 660.394C-216.109 660.536 -216.263 661.51 -216.794 662.594ZM-227.651 669.1L-227.586 681.651L-233.892 694.306C-237.461 701.309 -242.585 712.285 -245.393 718.677C-248.187 725.179 -250.775 730.25 -251.024 730.061C-252.641 728.828 -272.783 707.024 -281.663 696.881L-291.968 685.254L-295.793 673.508C-297.925 667.021 -300.913 657.401 -302.433 652.174L-305.249 642.587L-299.657 642.087C-287.815 640.994 -270.865 643.002 -253.963 647.652C-243.862 650.391 -230.175 654.873 -228.759 655.853C-228.214 656.17 -227.77 662.163 -227.651 669.1ZM59.7543 884.73C62.0207 889.236 65.1763 896.702 66.7348 901.362C69.8997 910.621 72.0785 926.073 71.0207 931.716L70.3506 935.174L61.3302 935.143C56.3418 935.111 47.4172 934.955 41.4435 934.667L30.5148 934.174L21.0933 929.77C-2.63253 918.727 -53.0298 891.22 -55.0477 888.194C-55.325 887.784 -51.3361 887.452 -46.1276 887.453C-22.3763 887.503 9.11412 884.621 34.9466 880.006C44.5842 878.324 52.9974 876.702 53.6287 876.389C54.2601 876.077 54.9823 876.032 55.231 876.222C55.4797 876.411 57.4879 880.224 59.7543 884.73ZM-225.376 711.117C-224.211 723.514 -221.444 742.193 -218.419 757.695C-217.444 762.606 -217.439 763.502 -218.539 762.366C-219.266 761.514 -222.537 758.326 -225.856 755.201C-233.703 747.829 -248.58 732.916 -248.652 732.365C-248.776 730.981 -230.151 691.205 -227.999 688.381C-227.568 687.816 -227.133 689.438 -226.966 692.442C-226.766 695.274 -226.068 703.644 -225.376 711.117ZM-356.667 601.205C-349.901 612.316 -340.873 625.747 -331.324 638.881C-326.881 645.045 -325.361 647.693 -325.964 648.226C-332.89 653.958 -336.607 658.963 -339.238 666.283C-341.171 671.656 -342.516 678.965 -342.536 684.407C-342.537 686.986 -342.795 688.872 -343.106 688.635C-344.163 687.83 -353.573 669.742 -359.291 657.644C-364.704 646.175 -364.914 645.42 -365.468 636.862C-366.15 626.023 -366.058 613.394 -365.094 600.138C-364.419 589.839 -364.184 588.629 -363.247 590.236C-363.017 590.709 -360.019 595.673 -356.667 601.205ZM-304.38 653.568C-302.816 659.125 -300.326 667.076 -298.997 671.264C-297.606 675.5 -296.659 678.9 -296.879 678.931C-297.147 679.024 -301.8 673.394 -307.237 666.471C-321.124 648.84 -321.401 648.43 -321.018 647.928C-320.492 647.238 -308.061 642.923 -307.626 643.255C-307.439 643.397 -306.053 648.026 -304.38 653.568ZM68.6852 941.743C65.958 949.189 66.2594 948.922 61.5438 947.113C54.1261 944.336 38.5351 937.708 38.4921 937.378C38.4778 937.268 43.2941 937.268 49.2534 937.446C55.2605 937.561 62.1621 937.663 64.6253 937.655C67.1363 937.585 69.3315 937.671 69.5802 937.861C69.8146 937.94 69.4317 939.732 68.6852 941.743ZM95.1401 966.871C69.7612 976.694 34.9988 984.125 26.4953 981.611C24.6206 980.976 23.1523 980.452 23.248 980.326C23.3915 980.138 26.8592 978.813 31.0348 977.333C45.2644 972.207 54.3573 966.34 62.5994 956.947L67.182 951.709L79.7123 955.904C86.5706 958.255 94.5718 960.783 97.4318 961.673C100.34 962.501 102.683 963.295 102.712 963.516C102.74 963.736 99.3492 965.218 95.1401 966.871ZM-315.333 660.199C-311.163 665.561 -304.689 673.573 -300.901 678.147C-294.393 685.985 -293.762 686.963 -290.023 696.758C-282.464 716.113 -276.827 728.448 -266.681 747.89L-260.886 758.857L-263.522 767.86C-264.948 772.825 -266.513 778.875 -266.968 781.406C-267.437 783.826 -267.949 785.916 -268.169 785.947C-268.719 786.024 -281.621 772.517 -289.42 763.793C-305.837 745.225 -322.306 723.245 -335.087 702.487C-340.194 694.229 -340.744 691.726 -339.939 681.128C-338.971 668.769 -334.565 658.734 -327.523 652.593C-325.667 650.932 -323.802 649.774 -323.491 650.011C-323.118 650.296 -319.441 654.885 -315.333 660.199ZM60.1316 956.058C52.4444 964.981 40.5581 972.191 26.1325 976.672C17.9584 979.271 18.2406 979.287 -0.234435 972.446C-24.1137 963.667 -47.8969 952.184 -71.3019 938.012C-81.6892 931.78 -114.156 909.509 -114.223 908.565C-114.266 908.235 -112.807 906.966 -110.894 905.746L-107.479 903.587L-97.316 907.663C-61.8631 921.891 -22.6168 931.273 18.2946 935.375C29.3571 936.466 30.1701 936.689 42.0164 941.652C48.7119 944.475 56.2826 947.567 58.8126 948.504C61.3904 949.377 63.7482 950.282 64.059 950.519C64.4177 950.693 62.6143 953.188 60.1316 956.058ZM115.793 998.193C115.458 998.632 88.2244 998.508 76.6693 997.934C60.6614 997.141 49.5655 996.222 34.6387 994.269C22.8445 992.719 -7.00893 987.522 -7.94151 986.811C-8.87404 986.1 -1.28848 985.433 6.4596 985.586C10.9602 985.742 18.3353 985.61 22.8407 985.374C28.9149 985.143 33.1141 985.566 39.2454 987.065C59.2799 992.119 89.0952 996.592 108.021 997.427C115.845 997.737 116.127 997.754 115.793 998.193ZM-279.727 702.722C-275.657 707.313 -267.7 715.959 -262.095 722.018L-251.828 732.92L-255.809 744.074C-257.924 750.201 -259.928 755.022 -260.115 754.88C-261.669 753.695 -278.074 720.155 -282.932 708.216C-284.82 703.602 -287.029 698.247 -287.789 696.278C-289.391 692.577 -289.439 691.35 -288.004 693.336C-287.54 693.888 -283.844 698.195 -279.727 702.722ZM22.2264 933.312C19.2562 933.727 -4.65732 930.28 -22.0614 926.934C-42.5026 923.058 -54.5595 919.919 -72.6855 914.038C-82.0928 911.033 -103.643 902.939 -104.824 902.039C-105.073 901.849 -102.533 899.42 -99.1414 896.647C-95.86 893.89 -91.5646 890.319 -89.7086 888.658L-86.3459 885.666L-73.8533 886.557L-61.3608 887.449L-49.6966 894.456C-25.4642 908.961 0.953978 923.048 22.9199 933.047C23.0921 933.079 22.7764 933.235 22.2264 933.312ZM-237.214 747.534C-232.221 752.332 -225.493 758.851 -222.222 762.039L-216.22 767.706L-212.826 780.016C-206.172 804.04 -197.317 826.467 -187.391 844.65C-184.398 850.008 -182.007 854.609 -181.964 854.939C-181.816 855.647 -188.563 849.412 -195.737 842.058C-215.879 821.544 -238.822 791.551 -253.574 766.415L-258.308 758.441L-254.341 747.177C-252.226 741.05 -250.231 735.725 -250.04 735.474C-249.91 735.176 -248.93 735.824 -247.955 736.866C-247.041 737.86 -242.159 742.673 -237.214 747.534ZM-348.032 684.781C-343.093 693.904 -342.471 695.668 -341.233 703.458C-339.695 713.56 -335.541 729.129 -330.884 742.105C-326.653 753.962 -326.596 754.403 -330.211 748.571C-343.088 727.94 -353.606 703.054 -359.036 680.261C-361.336 670.77 -364.351 654.481 -363.873 653.853C-363.729 653.665 -361.339 658.266 -358.57 664.047C-355.787 669.939 -351.054 679.203 -348.032 684.781ZM-201.109 781.409C-196.02 786.082 -185.963 794.939 -178.728 801.05C-171.54 807.224 -165.362 812.53 -165.146 812.892C-164.821 813.239 -165.467 816.021 -166.429 818.959C-169.377 827.725 -173.08 841.868 -174.689 850.167C-175.493 854.316 -176.383 857.805 -176.603 857.835C-178.081 858.098 -191.263 832.967 -197.13 818.871C-202.599 805.672 -211.114 779.834 -212.572 772.075C-212.854 770.768 -212.031 771.495 -201.109 781.409ZM-66.4397 884.569C-68.4341 884.736 -83.3085 883.616 -83.3515 883.285C-83.471 882.797 -77.8888 877.925 -77.1188 877.817C-76.6787 877.756 -74.2158 879.038 -71.5855 880.746C-68.9695 882.343 -66.4779 883.846 -66.057 884.067C-65.684 884.352 -65.7797 884.477 -66.4397 884.569ZM-80.4523 877.161C-81.2606 877.835 -83.0688 879.433 -84.4656 880.749C-86.9099 883.053 -87.3978 883.177 -93.821 882.447C-120.064 879.606 -156.943 870.343 -167.11 864.08L-171.61 861.344L-164.708 860.156C-155.951 858.598 -141.53 854.51 -130.213 850.239L-121.403 846.934L-114.215 851.819C-75.617 878.168 -78.8355 875.814 -80.4523 877.161ZM-135.731 835.813L-123.421 845.198L-130.514 847.926C-140.65 851.808 -158.093 856.766 -166.755 858.199L-174.159 859.401L-172.187 849.593C-170.096 838.984 -169.124 835.26 -165.138 822.424L-162.526 814.097L-155.29 820.208C-151.316 823.634 -142.569 830.6 -135.731 835.813ZM-98.4857 893.079C-103.336 897.121 -107.737 900.314 -108.349 900.344C-109.884 900.166 -130.965 889.651 -139.846 884.666C-145.049 881.692 -148.378 879.353 -151.524 876.259C-154.006 873.97 -155.958 871.888 -155.986 871.667C-156.015 871.447 -153.638 872.068 -150.716 873.006C-138.558 876.917 -113.617 882.239 -97.6713 884.275C-93.74 884.791 -90.3108 885.322 -90.1243 885.464C-89.8756 885.654 -93.6353 889.038 -98.4857 893.079ZM-331 713.244C-317.419 734.113 -300.721 755.277 -282.726 774.353C-277.198 780.254 -271.732 786.108 -270.556 787.401C-268.605 789.484 -268.552 790.318 -269.27 796.418C-269.74 800.128 -270.147 805.175 -270.162 807.645L-270.124 812.237L-274.868 808.918C-285.336 801.632 -303.8 783.687 -314.866 770.092C-320.8 762.79 -323.396 757.04 -330.572 735.893C-335.764 720.525 -341.118 697.89 -338.698 701.421C-338.158 702.131 -334.662 707.475 -331 713.244ZM-244.441 785.383C-230.823 805.686 -212.159 829.043 -199.883 841.179L-196.287 844.714L-200.615 842.01C-212.121 834.925 -237.802 814.455 -256.806 797.089C-266.782 787.996 -266.304 788.658 -265.112 783.614C-263.543 777.171 -259.576 762.038 -259.432 761.85C-259.336 761.724 -257.29 764.971 -254.798 769.053C-252.369 773.088 -247.659 780.449 -244.441 785.383ZM22.6019 983.108C21.9897 983.138 19.3687 983.223 16.5756 983.276C12.4959 983.341 12.0272 983.182 13.7921 982.544C16.0927 981.718 21.8034 981.706 22.8602 982.511C23.2954 982.843 23.152 983.031 22.6019 983.108ZM6.44584 981.606C-14.9194 985.261 -52.1521 975.431 -82.7356 958.168C-96.7577 950.256 -123.529 929.153 -130.467 920.589L-131.486 919.217L-127.678 917.06C-125.483 915.856 -122.163 913.823 -120.264 912.492L-116.768 910.098L-111.708 913.261C-108.954 915.063 -103.588 918.856 -99.7333 921.794C-72.1921 942.79 -26.7207 966.442 7.96729 977.805C11.0138 978.838 13.496 979.837 13.5246 980.058C13.6011 980.215 10.4539 980.991 6.44584 981.606ZM-113.108 904.653L-116.069 906.86L-124.519 900.021C-129.211 896.247 -133.945 892.141 -135.122 890.848L-137.226 888.45L-134.954 889.983C-133.725 890.821 -127.661 893.956 -121.563 896.917C-115.418 899.816 -110.334 902.303 -110.272 902.35C-110.257 902.461 -111.525 903.479 -113.108 904.653ZM-159.344 872.977C-159.44 873.103 -160.979 872.028 -162.72 870.701C-165.609 868.3 -165.671 868.253 -163.457 869.346C-161.118 870.533 -158.961 872.475 -159.344 872.977ZM-254.722 802.35C-243.584 812.626 -209.243 839.402 -191.725 851.367C-186.187 855.192 -181.773 858.557 -181.965 858.808C-182.395 859.373 -202.066 851.521 -213.984 846.007C-229.177 838.988 -246.346 829.273 -260.1 819.978L-267.895 814.73L-267.909 810.751C-268.037 803.311 -266.529 791.662 -265.597 792.373C-265.099 792.752 -260.15 797.22 -254.722 802.35ZM-127.848 900.262C-123.018 904.242 -118.968 907.826 -118.925 908.156C-118.824 908.927 -123.809 912.37 -129.257 915.262L-133.552 917.543L-139.415 910.792C-149.61 899.15 -158.346 887.529 -166.781 874.352L-170.846 868.078L-162.19 873.486C-154.079 878.578 -149.961 881.817 -127.848 900.262ZM-177.355 866.688C-179.605 881.244 -179.34 903.075 -176.835 909.847C-175.649 912.934 -175.649 912.934 -177.476 912.235C-182.378 910.284 -230.684 872.169 -239.392 863.347L-241.841 860.886L-236.747 862.586C-224.48 866.481 -209.835 867.128 -190.445 864.646C-183.673 863.757 -177.861 863.226 -177.551 863.463C-177.178 863.747 -177.101 865.194 -177.355 866.688ZM-165.228 880.695C-157.171 892.692 -149.127 903.288 -140.649 912.927C-138.205 915.782 -136.149 918.242 -136.12 918.463C-136.034 919.123 -145.385 923.008 -149.728 924.063C-156.023 925.614 -158.902 925.007 -165.516 920.659C-170.714 917.291 -171.537 916.565 -173.191 913.319C-176.682 906.293 -177.574 892.119 -175.749 873.865C-175.146 868.174 -174.748 866.492 -174.069 867.407C-173.591 868.069 -169.617 874.075 -165.228 880.695ZM-193.492 862.324C-222.524 865.591 -242.271 861.45 -254.222 849.661C-261.041 842.875 -265.019 834.683 -266.998 823.352L-267.977 817.545L-262.095 821.434C-236.634 838.066 -211.301 851.128 -189.76 858.719C-183.715 860.847 -184.16 861.301 -193.492 862.324ZM-26.8999 982.28C-27.3256 982.451 -28.1243 982.338 -28.4973 982.054C-28.9325 981.722 -28.6789 981.519 -27.8324 981.569C-26.0771 981.716 -25.8285 981.906 -26.8999 982.28ZM-322.546 764.435C-321.824 765.68 -321.274 766.893 -321.418 767.081C-321.705 767.458 -326.228 760.239 -326.295 759.295C-326.333 758.572 -324.358 761.268 -322.546 764.435ZM-309.974 779.278C-299.87 790.652 -287.03 802.822 -276.337 810.974L-270.555 815.382L-269.236 822.935C-268.581 827.106 -267.157 832.458 -266.119 834.836C-265.129 837.277 -264.417 839.309 -264.589 839.277C-265.139 839.354 -280.203 823.008 -286.496 815.532C-298.771 800.816 -316.344 775.513 -316.755 771.926C-316.856 771.155 -316.683 771.187 -316.191 771.959C-315.837 772.526 -313.006 775.776 -309.974 779.278ZM-58.5846 972.908C-60.5264 972.619 -87.3372 962.399 -97.7775 957.912C-111.776 951.904 -127.788 943.766 -140.714 936.094C-156.429 926.792 -155.655 927.581 -150.307 926.499C-146.548 925.693 -136.494 922.047 -134.643 920.779C-134.279 920.561 -130.616 923.75 -126.446 927.822C-116.494 937.591 -95.6677 953.469 -84.7781 959.687C-76.8633 964.133 -65.3231 969.756 -60.8562 971.375C-57.9197 972.423 -56.8772 973.119 -58.5846 972.908Z" fill="url(#paint0_linear_1871_10855)" fill-opacity="0.52"/>
<defs>
<linearGradient id="paint0_linear_1871_10855" x1="390.046" y1="1509.98" x2="1011.29" y2="991.884" gradientUnits="userSpaceOnUse">
<stop stop-color="#38C9D8"/>
<stop offset="0.69064" stop-color="#FF286E"/>
</linearGradient>
</defs>
</svg>
