<svg width="60" height="61" fill="none" xmlns="http://www.w3.org/2000/svg"><g fill="#fff"><path d="M38.92 25.1a1 1 0 1 0-2-.13 6.32 6.32 0 0 1-2.09 4.43 5.55 5.55 0 0 1-4.03 1.52v-5.88a1 1 0 0 0-1-1h-1.63a1 1 0 0 0 0 2h.63v8.88c-3.36-1.22-5.06-3.15-5.95-4.95a10.91 10.91 0 0 1-1.02-4.93 1 1 0 1 0-2 0c0 .95 0 3.33 1.23 5.82 1.25 2.54 3.73 5.08 8.48 6.4a1 1 0 0 0 1.26-.97v-3.37l.94-.03c.46-.03.99-.1 1.48-.26.8.59 1.63 1.44 2.35 2.29a19.15 19.15 0 0 1 1.42 1.94c0 .01 0 .01 0 0a1 1 0 1 0 1.87-.72c-.1-.27-.36-.67-.63-1.06a21.1 21.1 0 0 0-3.05-3.43 8.31 8.31 0 0 0 3.74-6.55Z"/><path fill-rule="evenodd" clip-rule="evenodd" d="M45.47 45.66C48 43.13 48 39.06 48 30.93v-1.5c0-8.13 0-12.2-2.53-14.72-2.52-2.53-6.59-2.53-14.72-2.53h-1.5c-8.13 0-12.2 0-14.72 2.53C12 17.23 12 21.3 12 29.43v1.5c0 8.13 0 12.2 2.53 14.73 2.52 2.52 6.59 2.52 14.72 2.52h1.5c8.13 0 12.2 0 14.72-2.52Zm.43-5.5c-.29 2.15-.83 3.35-1.7 4.22-.87.88-2.08 1.41-4.23 1.7-2.2.3-5.1.3-9.22.3h-1.5c-4.12 0-7.02 0-9.22-.3-2.15-.29-3.36-.82-4.23-1.7-.87-.87-1.41-2.07-1.7-4.22-.3-2.2-.3-5.11-.3-9.23v-1.5c0-4.11 0-7.02.3-9.22.29-2.15.83-3.36 1.7-4.23.87-.87 2.08-1.4 4.23-1.7 2.2-.3 5.1-.3 9.22-.3h1.5c4.12 0 7.02 0 9.22.3 2.15.3 3.36.83 4.23 1.7.87.87 1.41 2.08 1.7 4.23.3 2.2.3 5.1.3 9.22v1.5c0 4.12 0 7.03-.3 9.23Z"/></g></svg>